PathFileType	4	(X/Y/Z)	pose_F01_0-92.trc
DataRate	CameraRate	NumFrames	NumMarkers	Units	OrigDataRate	OrigDataStartFrame	OrigNumFrames
30	30	5	21	m	30	0	92
Frame#	Time	CHip			RHip			RKnee			RAnkle			RBigToe			RSmallToe			RHeel			LHip			LKnee			LAnkle			LBigToe			LSmallToe			LHeel			Neck			Nose			RShoulder			RElbow			RWrist			LShoulder			LElbow			LWrist			
		X1	Y1	Z1	X2	Y2	Z2	X3	Y3	Z3	X4	Y4	Z4	X5	Y5	Z5	X6	Y6	Z6	X7	Y7	Z7	X8	Y8	Z8	X9	Y9	Z9	X10	Y10	Z10	X11	Y11	Z11	X12	Y12	Z12	X13	Y13	Z13	X14	Y14	Z14	X15	Y15	Z15	X16	Y16	Z16	X17	Y17	Z17	X18	Y18	Z18	X19	Y19	Z19	X20	Y20	Z20	X21	Y21	Z21	
0	0.0	-0.17726177854216565	1.8251950506899162	-0.6043083325149937	-0.19632293146804575	1.8223891772644982	-0.5445571823795756	-0.21151377567730847	1.6907028629715564	-0.5479562903490763	-0.1978500535070537	1.5613708329605247	-0.5139251484964757	-0.2437903991286574	1.5273758314817891	-0.5289533203812827	-0.2287711178989502	1.535217791292669	-0.5009727569185167	-0.18715473583179848	1.5511587881290931	-0.5114327185853758	-0.1593340309127539	1.8257167542754038	-0.6614739798180426	-0.16837256584976426	1.6962003853671421	-0.6335585543072573	-0.16620206112780805	1.5641922685587566	-0.6152410641174909	-0.2073712537551236	1.5296785242378825	-0.6369952502299214	-0.1927120311998681	1.5357955010995863	-0.6520032226768722	-0.1559049807077632	1.5490394024754643	-0.607102588005678	-1.4478861667915965	1.8807638142160892	0.6518304556109182	-0.21412177173189204	2.031708492412273	-0.6435962105923947	-1.6300860508156787	1.8861396503285484	0.9516000749893669	-0.2004845698168917	1.8928673419076913	-0.5005774908909161	-0.22516855958598564	1.8248209120011285	-0.5133127174531336	-1.278088690116874	1.874141906822367	0.3917869329503629	-1.1796364493243514	1.8207634991286055	0.2903349328667939	-1.1698678507569307	1.7859326589986984	0.20149392345164926
1	0.03333333333333333	-0.17726177854216565	1.8251950506899162	-0.6043083325149937	-0.19632293146804575	1.8223891772644982	-0.5445571823795756	-0.21151377567730847	1.6907028629715564	-0.5479562903490763	-0.1978500535070537	1.5613708329605247	-0.5139251484964757	-0.2437903991286574	1.5273758314817891	-0.5289533203812827	-0.2287711178989502	1.535217791292669	-0.5009727569185167	-0.18715473583179848	1.5511587881290931	-0.5114327185853758	-0.1593340309127539	1.8257167542754038	-0.6614739798180426	-0.16837256584976426	1.6962003853671421	-0.6335585543072573	-0.16620206112780805	1.5641922685587566	-0.6152410641174909	-0.2073712537551236	1.5296785242378825	-0.6369952502299214	-0.1927120311998681	1.5357955010995863	-0.6520032226768722	-0.1559049807077632	1.5490394024754643	-0.607102588005678	-1.4555579861882857	1.8828831263534156	0.6659812766817035	-0.21412177173189204	2.031708492412273	-0.6435962105923947	-1.6290721201489766	1.8862512727782157	0.9506697989093972	-0.2004845698168917	1.8928673419076913	-0.5005774908909161	-0.22516855958598564	1.8248209120011285	-0.5133127174531336	-1.2759028898496982	1.8781687465522054	0.3903508484717808	-1.175355875655485	1.821478118437236	0.28291023148972944	-1.1559595171016006	1.7952226336107246	0.18625864257042882
2	0.06666666666666667	-0.17726177854216565	1.8251950506899162	-0.6043083325149937	-0.19632293146804575	1.8223891772644982	-0.5445571823795756	-0.21151377567730847	1.6907028629715564	-0.5479562903490763	-0.1978500535070537	1.5613708329605247	-0.5139251484964757	-0.2437903991286574	1.5273758314817891	-0.5289533203812827	-0.2287711178989502	1.535217791292669	-0.5009727569185167	-0.18715473583179848	1.5511587881290931	-0.5114327185853758	-0.1593340309127539	1.8257167542754038	-0.6614739798180426	-0.16837256584976426	1.6962003853671421	-0.6335585543072573	-0.16620206112780805	1.5641922685587566	-0.6152410641174909	-0.2073712537551236	1.5296785242378825	-0.6369952502299214	-0.1927120311998681	1.5357955010995863	-0.6520032226768722	-0.1559049807077632	1.5490394024754643	-0.607102588005678	-1.4632298055849748	1.885002438490742	0.6801320977524887	-0.21412177173189204	2.031708492412273	-0.6435962105923947	-1.6280581894822745	1.886362895227883	0.9497395228294274	-0.2004845698168917	1.8928673419076913	-0.5005774908909161	-0.22516855958598564	1.8248209120011285	-0.5133127174531336	-1.2737170895825225	1.8821955862820439	0.38891476399319874	-1.1710753019866185	1.8221927377458664	0.27548553011266497	-1.1420511834462705	1.804512608222751	0.17102336168920837
3	0.1	-0.17726177854216565	1.8251950506899162	-0.6043083325149937	-0.19632293146804575	1.8223891772644982	-0.5445571823795756	-0.21151377567730847	1.6907028629715564	-0.5479562903490763	-0.1978500535070537	1.5613708329605247	-0.5139251484964757	-0.2437903991286574	1.5273758314817891	-0.5289533203812827	-0.2287711178989502	1.535217791292669	-0.5009727569185167	-0.18715473583179848	1.5511587881290931	-0.5114327185853758	-0.1593340309127539	1.8257167542754038	-0.6614739798180426	-0.16837256584976426	1.6962003853671421	-0.6335585543072573	-0.16620206112780805	1.5641922685587566	-0.6152410641174909	-0.2073712537551236	1.5296785242378825	-0.6369952502299214	-0.1927120311998681	1.5357955010995863	-0.6520032226768722	-0.1559049807077632	1.5490394024754643	-0.607102588005678	-1.4651511243995174	1.886807039379634	0.6827289754204278	-0.21412177173189204	2.031708492412273	-0.6435962105923947	-1.6270058096234374	1.886479115692674	0.9487539269361768	-0.2004845698168917	1.8928673419076913	-0.5005774908909161	-0.22516855958598564	1.8248209120011285	-0.5133127174531336	-1.2832029950322992	1.884352504407201	0.4041864036816985	-1.166794728317752	1.822907357054497	0.26806082873560044	-1.1281428497909405	1.8138025828347772	0.15578808080798792
4	0.13333333333333333	-0.17726177854216565	1.8251950506899162	-0.6043083325149937	-0.19632293146804575	1.8223891772644982	-0.5445571823795756	-0.21151377567730847	1.6907028629715564	-0.5479562903490763	-0.1978500535070537	1.5613708329605247	-0.5139251484964757	-0.2437903991286574	1.5273758314817891	-0.5289533203812827	-0.2287711178989502	1.535217791292669	-0.5009727569185167	-0.18715473583179848	1.5511587881290931	-0.5114327185853758	-0.1593340309127539	1.8257167542754038	-0.6614739798180426	-0.16837256584976426	1.6962003853671421	-0.6335585543072573	-0.16620206112780805	1.5641922685587566	-0.6152410641174909	-0.2073712537551236	1.5296785242378825	-0.6369952502299214	-0.1927120311998681	1.5357955010995863	-0.6520032226768722	-0.1559049807077632	1.5490394024754643	-0.607102588005678	-1.471073133515893	1.8877250012874787	0.6944623177236344	-0.21412177173189204	2.031708492412273	-0.6435962105923947	-1.6359013978091805	1.8885636211088204	0.9651081302798046	-0.2004845698168917	1.8928673419076913	-0.5005774908909161	-0.22516855958598564	1.8248209120011285	-0.5133127174531336	-1.2738425021295576	1.8868417549075827	0.3893592413362817	-1.1625141546488855	1.8236219763631274	0.260636127358536	-1.1142345161356104	1.8230925574468035	0.14055279992676747
